<svg width="372" height="200" viewBox="0 0 372 200" fill="none" xmlns="http://www.w3.org/2000/svg">
<path d="M71.3014 2.98447C62.9929 7.25884 56.8286 13.217 51.7364 22.2839C39.8098 43.0081 39.6758 60.3646 51.4684 82.2545C58.4367 95.0776 60.3128 104.922 56.9626 111.139C55.7566 113.341 53.8805 115.672 52.5404 116.32C50.6643 117.356 50.7983 118.004 54.4165 121.242C61.2508 127.718 75.0535 136.008 78.6717 136.008C79.3418 136.008 80.6818 134.324 81.6199 132.122C83.63 127.33 82.1559 115.284 79.6098 115.284C77.76 113.609 77.4657 113.018 77.4657 111.009C79.7438 108.807 81.2442 107.106 77.76 107.106C74.2758 107.106 67.1735 101.019 67.9775 98.8166C68.2455 98.0394 68.4872 97.9272 70.8993 98.1863C73.4455 98.3158 79.8778 97.5386 85.238 96.3729C93.1444 94.6891 95.8246 94.5595 98.9067 95.8548C101.051 96.632 103.597 97.1501 104.535 97.0205C107.483 96.3729 113.781 98.3158 113.781 99.8701C113.781 100.518 111.101 102.202 107.885 103.626C101.587 106.217 97.7007 110.362 97.7007 114.636C97.7007 116.19 99.4428 119.947 101.453 123.185C110.565 137.174 113.513 148.054 111.101 158.157C109.761 163.597 107.751 166.447 100.783 173.441C88.5882 185.357 86.9801 187.559 86.9801 192.222C86.9801 199.735 89.1242 201.03 98.3707 199.346C139.243 192.093 165.642 147.924 148.891 114.895C144.603 106.605 140.181 101.036 137.635 101.036C137.099 101.036 136.563 103.108 136.563 105.699C136.563 108.289 135.625 112.046 134.285 113.988C130.934 119.429 117.802 125.775 117.802 122.019C117.802 121.371 119.678 117.227 122.09 112.693C125.574 105.828 126.244 102.979 126.378 95.3367C126.512 73.8353 119.812 62.5665 93.1444 39.5109C76.6616 25.263 71.0333 15.5485 74.1155 6.74073C74.9195 4.40926 76.5276 1.94825 77.5997 1.30062C81.4859 -1.16038 76.7956 0.134892 71.3014 2.98447Z" fill="#E85448"/>
<path d="M25.4598 76.7402C20.4515 78.109 7.58722 93.0533 8.52526 96.6801C9.73132 101.473 18.9778 111.964 26.6162 117.534C30.5024 120.124 43.043 127.479 43.311 127.22C43.579 126.961 33.3582 118.827 30.6781 115.977C15.0374 94.6752 21.3056 83.6051 27.0679 77.5173C30.1501 74.2792 29.614 74.0201 25.4598 76.7402Z" fill="#E85448"/>
<path d="M0 124.858C0.601566 133.73 3.78552 134.428 13.836 137.278C27.0705 142.008 51.4041 142.105 49.93 139.644C49.394 138.997 41.2741 138.199 38.4599 137.681C30.8215 136.515 13.2345 129.588 9.64848 126.93C8.42193 126.038 4.81253 123.671 3.6094 121.897L0 113.613V124.858Z" fill="#E85448"/>
<path d="M4.8146 156.833C4.8146 157.48 4.60806 159.382 6.61816 160.355C8.81902 162.933 40.307 162.13 48.86 155.474C51.6741 154.308 52.0762 153.79 49.932 154.438C46.4479 155.215 12.721 157.221 7.76274 156.314C6.15466 156.055 4.8146 156.314 4.8146 156.833Z" fill="#E85448"/>
<path d="M48.7262 178.107C40.1502 186.526 27.8777 181.712 23.3218 181.065C18.3638 180.287 18.6501 181.536 23.8761 183.997C27.4941 185.811 37.7582 193.27 40.3042 191.716C45.7982 188.219 68.3156 160.947 66.1716 160.947C65.9036 160.947 52.3356 175.148 48.7262 178.107Z" fill="#E85448"/>
<path d="M202.762 118.021C207.276 118.021 210.57 118.946 212.644 120.796C214.717 122.646 215.754 125.238 215.754 128.572C215.754 130.087 215.515 131.531 215.036 132.902C214.574 134.258 213.808 135.462 212.739 136.515C211.671 137.552 210.259 138.373 208.504 138.979C206.766 139.586 204.62 139.889 202.068 139.889H198.336V153H192.594V118.021H202.762ZM202.379 122.782H198.336V135.104H201.47C203.273 135.104 204.804 134.896 206.064 134.481C207.324 134.051 208.281 133.373 208.935 132.448C209.589 131.523 209.916 130.302 209.916 128.787C209.916 126.761 209.302 125.254 208.074 124.265C206.861 123.276 204.963 122.782 202.379 122.782ZM265.079 153H245.269V118.021H265.079V122.854H251.011V132.352H264.194V137.161H251.011V148.143H265.079V153ZM300.863 153H295.168V118.021H314.931V122.854H300.863V133.764H314.022V138.573H300.863V153ZM365.501 153L362.079 143.286H348.705L345.283 153H339.23L352.246 117.877H358.61L371.602 153H365.501ZM360.596 138.357L357.27 128.787C357.143 128.372 356.959 127.79 356.72 127.041C356.481 126.275 356.241 125.501 356.002 124.72C355.763 123.922 355.563 123.252 355.404 122.71C355.244 123.364 355.045 124.098 354.806 124.911C354.582 125.709 354.359 126.458 354.136 127.16C353.928 127.862 353.769 128.404 353.657 128.787L350.308 138.357H360.596Z" fill="#E85448"/>
<path d="M208.883 196H199.344V178.867H208.883V180.625H201.336V186.168H208.449V187.902H201.336V194.242H208.883V196ZM218.709 182.922C220.232 182.922 221.385 183.297 222.166 184.047C222.947 184.789 223.338 185.984 223.338 187.633V196H221.416V187.762C221.416 186.691 221.17 185.891 220.677 185.359C220.193 184.828 219.447 184.562 218.439 184.562C217.017 184.562 216.017 184.965 215.439 185.77C214.861 186.574 214.572 187.742 214.572 189.273V196H212.627V183.156H214.197L214.49 185.008H214.595C214.869 184.555 215.217 184.176 215.638 183.871C216.06 183.559 216.533 183.324 217.056 183.168C217.58 183.004 218.131 182.922 218.709 182.922ZM231.734 194.641C232.054 194.641 232.382 194.613 232.718 194.559C233.054 194.504 233.328 194.438 233.539 194.359V195.871C233.312 195.973 232.996 196.059 232.589 196.129C232.191 196.199 231.8 196.234 231.417 196.234C230.738 196.234 230.121 196.117 229.566 195.883C229.011 195.641 228.566 195.234 228.23 194.664C227.902 194.094 227.738 193.305 227.738 192.297V184.68H225.91V183.73L227.75 182.969L228.523 180.18H229.695V183.156H233.457V184.68H229.695V192.238C229.695 193.043 229.878 193.645 230.246 194.043C230.621 194.441 231.117 194.641 231.734 194.641ZM241.325 182.922C242.419 182.922 243.357 183.164 244.138 183.648C244.919 184.133 245.517 184.812 245.931 185.688C246.345 186.555 246.552 187.57 246.552 188.734V189.941H237.681C237.704 191.449 238.079 192.598 238.806 193.387C239.533 194.176 240.556 194.57 241.876 194.57C242.689 194.57 243.408 194.496 244.033 194.348C244.658 194.199 245.306 193.98 245.978 193.691V195.402C245.329 195.691 244.685 195.902 244.044 196.035C243.411 196.168 242.661 196.234 241.794 196.234C240.56 196.234 239.482 195.984 238.56 195.484C237.646 194.977 236.935 194.234 236.427 193.258C235.919 192.281 235.665 191.086 235.665 189.672C235.665 188.289 235.896 187.094 236.357 186.086C236.825 185.07 237.482 184.289 238.325 183.742C239.177 183.195 240.177 182.922 241.325 182.922ZM241.302 184.516C240.263 184.516 239.435 184.855 238.818 185.535C238.2 186.215 237.833 187.164 237.716 188.383H244.513C244.505 187.617 244.384 186.945 244.15 186.367C243.923 185.781 243.575 185.328 243.107 185.008C242.638 184.68 242.036 184.516 241.302 184.516ZM255.933 182.922C256.19 182.922 256.46 182.938 256.741 182.969C257.022 182.992 257.272 183.027 257.491 183.074L257.245 184.879C257.034 184.824 256.8 184.781 256.542 184.75C256.284 184.719 256.042 184.703 255.815 184.703C255.3 184.703 254.812 184.809 254.351 185.02C253.897 185.223 253.499 185.52 253.155 185.91C252.812 186.293 252.542 186.758 252.347 187.305C252.151 187.844 252.054 188.445 252.054 189.109V196H250.097V183.156H251.714L251.925 185.523H252.007C252.272 185.047 252.593 184.613 252.968 184.223C253.343 183.824 253.776 183.508 254.269 183.273C254.769 183.039 255.323 182.922 255.933 182.922ZM264.305 194.641C264.626 194.641 264.954 194.613 265.29 194.559C265.626 194.504 265.899 194.438 266.11 194.359V195.871C265.884 195.973 265.567 196.059 265.161 196.129C264.763 196.199 264.372 196.234 263.989 196.234C263.309 196.234 262.692 196.117 262.138 195.883C261.583 195.641 261.138 195.234 260.802 194.664C260.473 194.094 260.309 193.305 260.309 192.297V184.68H258.481V183.73L260.321 182.969L261.095 180.18H262.266V183.156H266.028V184.68H262.266V192.238C262.266 193.043 262.45 193.645 262.817 194.043C263.192 194.441 263.688 194.641 264.305 194.641ZM273.756 182.945C275.288 182.945 276.424 183.289 277.167 183.977C277.909 184.664 278.28 185.762 278.28 187.27V196H276.862L276.487 194.102H276.393C276.034 194.57 275.659 194.965 275.268 195.285C274.878 195.598 274.424 195.836 273.909 196C273.401 196.156 272.776 196.234 272.034 196.234C271.253 196.234 270.557 196.098 269.948 195.824C269.346 195.551 268.87 195.137 268.518 194.582C268.174 194.027 268.003 193.324 268.003 192.473C268.003 191.191 268.51 190.207 269.526 189.52C270.542 188.832 272.088 188.457 274.167 188.395L276.381 188.301V187.516C276.381 186.406 276.143 185.629 275.667 185.184C275.19 184.738 274.518 184.516 273.651 184.516C272.979 184.516 272.338 184.613 271.729 184.809C271.12 185.004 270.542 185.234 269.995 185.5L269.397 184.023C269.975 183.727 270.639 183.473 271.389 183.262C272.139 183.051 272.928 182.945 273.756 182.945ZM276.358 189.672L274.401 189.754C272.799 189.816 271.67 190.078 271.014 190.539C270.358 191 270.03 191.652 270.03 192.496C270.03 193.23 270.253 193.773 270.698 194.125C271.143 194.477 271.733 194.652 272.467 194.652C273.608 194.652 274.542 194.336 275.268 193.703C275.995 193.07 276.358 192.121 276.358 190.855V189.672ZM284.473 183.156V196H282.528V183.156H284.473ZM283.524 178.352C283.844 178.352 284.118 178.457 284.344 178.668C284.578 178.871 284.696 179.191 284.696 179.629C284.696 180.059 284.578 180.379 284.344 180.59C284.118 180.801 283.844 180.906 283.524 180.906C283.188 180.906 282.907 180.801 282.68 180.59C282.461 180.379 282.352 180.059 282.352 179.629C282.352 179.191 282.461 178.871 282.68 178.668C282.907 178.457 283.188 178.352 283.524 178.352ZM294.92 182.922C296.443 182.922 297.596 183.297 298.377 184.047C299.158 184.789 299.549 185.984 299.549 187.633V196H297.627V187.762C297.627 186.691 297.381 185.891 296.889 185.359C296.404 184.828 295.658 184.562 294.65 184.562C293.229 184.562 292.229 184.965 291.65 185.77C291.072 186.574 290.783 187.742 290.783 189.273V196H288.838V183.156H290.408L290.701 185.008H290.807C291.08 184.555 291.428 184.176 291.85 183.871C292.272 183.559 292.744 183.324 293.268 183.168C293.791 183.004 294.342 182.922 294.92 182.922ZM317.742 182.922C319.156 182.922 320.223 183.293 320.941 184.035C321.66 184.77 322.019 185.953 322.019 187.586V196H320.098V187.68C320.098 186.641 319.871 185.863 319.418 185.348C318.973 184.824 318.308 184.562 317.426 184.562C316.183 184.562 315.281 184.922 314.719 185.641C314.156 186.359 313.875 187.418 313.875 188.816V196H311.941V187.68C311.941 186.984 311.84 186.406 311.637 185.945C311.441 185.484 311.144 185.141 310.746 184.914C310.355 184.68 309.859 184.562 309.258 184.562C308.406 184.562 307.723 184.738 307.207 185.09C306.691 185.441 306.316 185.965 306.082 186.66C305.855 187.348 305.742 188.195 305.742 189.203V196H303.797V183.156H305.367L305.66 184.973H305.765C306.023 184.527 306.348 184.152 306.738 183.848C307.129 183.543 307.566 183.312 308.051 183.156C308.535 183 309.051 182.922 309.598 182.922C310.574 182.922 311.39 183.105 312.047 183.473C312.711 183.832 313.191 184.383 313.488 185.125H313.594C314.015 184.383 314.594 183.832 315.328 183.473C316.062 183.105 316.867 182.922 317.742 182.922ZM331.201 182.922C332.295 182.922 333.232 183.164 334.013 183.648C334.795 184.133 335.392 184.812 335.806 185.688C336.22 186.555 336.427 187.57 336.427 188.734V189.941H327.556C327.58 191.449 327.955 192.598 328.681 193.387C329.408 194.176 330.431 194.57 331.752 194.57C332.564 194.57 333.283 194.496 333.908 194.348C334.533 194.199 335.181 193.98 335.853 193.691V195.402C335.205 195.691 334.56 195.902 333.92 196.035C333.287 196.168 332.537 196.234 331.67 196.234C330.435 196.234 329.357 195.984 328.435 195.484C327.521 194.977 326.81 194.234 326.302 193.258C325.795 192.281 325.541 191.086 325.541 189.672C325.541 188.289 325.771 187.094 326.232 186.086C326.701 185.07 327.357 184.289 328.201 183.742C329.052 183.195 330.052 182.922 331.201 182.922ZM331.177 184.516C330.138 184.516 329.31 184.855 328.693 185.535C328.076 186.215 327.709 187.164 327.591 188.383H334.388C334.38 187.617 334.259 186.945 334.025 186.367C333.798 185.781 333.451 185.328 332.982 185.008C332.513 184.68 331.912 184.516 331.177 184.516ZM346.054 182.922C347.577 182.922 348.73 183.297 349.511 184.047C350.292 184.789 350.683 185.984 350.683 187.633V196H348.761V187.762C348.761 186.691 348.515 185.891 348.023 185.359C347.538 184.828 346.792 184.562 345.785 184.562C344.363 184.562 343.363 184.965 342.785 185.77C342.206 186.574 341.917 187.742 341.917 189.273V196H339.972V183.156H341.542L341.835 185.008H341.941C342.214 184.555 342.562 184.176 342.984 183.871C343.406 183.559 343.878 183.324 344.402 183.168C344.925 183.004 345.476 182.922 346.054 182.922ZM359.079 194.641C359.4 194.641 359.728 194.613 360.064 194.559C360.4 194.504 360.673 194.438 360.884 194.359V195.871C360.657 195.973 360.341 196.059 359.935 196.129C359.536 196.199 359.146 196.234 358.763 196.234C358.083 196.234 357.466 196.117 356.911 195.883C356.357 195.641 355.911 195.234 355.575 194.664C355.247 194.094 355.083 193.305 355.083 192.297V184.68H353.255V183.73L355.095 182.969L355.868 180.18H357.04V183.156H360.802V184.68H357.04V192.238C357.04 193.043 357.224 193.645 357.591 194.043C357.966 194.441 358.462 194.641 359.079 194.641Z" fill="black"/>
</svg>
