<svg width="50" height="50" viewBox="0 0 50 50" fill="none" xmlns="http://www.w3.org/2000/svg">
<path d="M50 25C50 38.8235 38.8235 50 25 50C11.1765 50 0 38.8235 0 25C0 11.1765 11.1765 0 25 0C38.8235 0 50 11.1765 50 25ZM2.94118 25C2.94118 37.2059 12.7941 47.0588 25 47.0588C37.2059 47.0588 47.0588 37.2059 47.0588 25C47.0588 12.7941 37.2059 2.94118 25 2.94118C12.7941 2.94118 2.94118 12.7941 2.94118 25Z" fill="#E85448"/>
<path d="M27.472 12.7911L15.2661 24.997L27.472 37.2029L25.4131 39.2617L11.1484 24.997L25.4131 10.7323L27.472 12.7911Z" fill="#E85448"/>
<path d="M13.2656 26.4668V23.5256H38.2656V26.4668H13.2656Z" fill="#E85448"/>
</svg>
