<svg width="34" height="37" viewBox="0 0 34 37" fill="none" xmlns="http://www.w3.org/2000/svg">
<path d="M2.42857 34.5951H11.3949V22.3852C11.3949 21.8353 11.5835 21.3743 11.9607 21.0023C12.3363 20.6288 12.8018 20.442 13.3571 20.442H20.6429C21.1982 20.442 21.6645 20.6288 22.0417 21.0023C22.4173 21.3743 22.6051 21.8353 22.6051 22.3852V34.5951H31.5714V13.6913C31.5714 13.4444 31.5172 13.22 31.4087 13.0179C31.3002 12.8159 31.1521 12.6396 30.9643 12.4889L17.8889 2.72961C17.6395 2.51477 17.3432 2.40735 17 2.40735C16.6568 2.40735 16.3613 2.51477 16.1136 2.72961L3.03571 12.4889C2.84952 12.6428 2.70138 12.8191 2.59129 13.0179C2.48119 13.2167 2.42695 13.4412 2.42857 13.6913V34.5951ZM0 34.5951V13.6913C0 13.0757 0.139238 12.4929 0.417714 11.9429C0.69619 11.393 1.0799 10.9401 1.56886 10.5841L14.6467 0.776797C15.3316 0.258933 16.1136 0 16.9927 0C17.8719 0 18.6587 0.258933 19.3533 0.776797L32.4311 10.5817C32.9217 10.9377 33.3054 11.3914 33.5823 11.9429C33.8608 12.4929 34 13.0757 34 13.6913V34.5951C34 35.2396 33.758 35.8015 33.2739 36.2809C32.7898 36.7603 32.2223 37 31.5714 37H22.1389C21.5819 37 21.1156 36.814 20.74 36.4421C20.3644 36.0685 20.1766 35.6067 20.1766 35.0568V22.8493H13.8234V35.0568C13.8234 35.6083 13.6356 36.0701 13.26 36.4421C12.8844 36.814 12.4189 37 11.8636 37H2.42857C1.77771 37 1.21024 36.7603 0.726142 36.2809C0.242047 35.8015 0 35.2396 0 34.5951Z" fill="#E85448"/>
</svg>
