<svg width="372" height="200" viewBox="0 0 372 200" fill="none" xmlns="http://www.w3.org/2000/svg">
<path d="M71.3014 2.98447C62.9929 7.25884 56.8286 13.217 51.7364 22.2839C39.8098 43.0081 39.6758 60.3646 51.4684 82.2545C58.4367 95.0776 60.3128 104.922 56.9626 111.139C55.7566 113.341 53.8805 115.672 52.5404 116.32C50.6643 117.356 50.7983 118.004 54.4165 121.242C61.2508 127.718 75.0535 136.008 78.6717 136.008C79.3418 136.008 80.6818 134.324 81.6199 132.122C83.63 127.33 82.1559 115.284 79.6098 115.284C77.76 113.609 77.4657 113.018 77.4657 111.009C79.7438 108.807 81.2442 107.106 77.76 107.106C74.2758 107.106 67.1735 101.019 67.9775 98.8166C68.2455 98.0394 68.4872 97.9272 70.8993 98.1863C73.4455 98.3158 79.8778 97.5386 85.238 96.3729C93.1444 94.6891 95.8246 94.5595 98.9067 95.8548C101.051 96.632 103.597 97.1501 104.535 97.0205C107.483 96.3729 113.781 98.3158 113.781 99.8701C113.781 100.518 111.101 102.202 107.885 103.626C101.587 106.217 97.7007 110.362 97.7007 114.636C97.7007 116.19 99.4428 119.947 101.453 123.185C110.565 137.174 113.513 148.054 111.101 158.157C109.761 163.597 107.751 166.447 100.783 173.441C88.5882 185.357 86.9801 187.559 86.9801 192.222C86.9801 199.735 89.1242 201.03 98.3707 199.346C139.243 192.093 165.642 147.924 148.891 114.895C144.603 106.605 140.181 101.036 137.635 101.036C137.099 101.036 136.563 103.108 136.563 105.699C136.563 108.289 135.625 112.046 134.285 113.988C130.934 119.429 117.802 125.775 117.802 122.019C117.802 121.371 119.678 117.227 122.09 112.693C125.574 105.828 126.244 102.979 126.378 95.3367C126.512 73.8353 119.812 62.5665 93.1444 39.5109C76.6616 25.263 71.0333 15.5485 74.1155 6.74073C74.9195 4.40926 76.5276 1.94825 77.5997 1.30062C81.4859 -1.16038 76.7956 0.134892 71.3014 2.98447Z" fill="#E85448"/>
<path d="M25.4598 76.7402C20.4515 78.109 7.58722 93.0533 8.52526 96.6801C9.73132 101.473 18.9778 111.964 26.6162 117.534C30.5024 120.124 43.043 127.479 43.311 127.22C43.579 126.961 33.3582 118.827 30.6781 115.977C15.0374 94.6752 21.3056 83.6051 27.0679 77.5173C30.1501 74.2792 29.614 74.0201 25.4598 76.7402Z" fill="#E85448"/>
<path d="M0 124.858C0.601566 133.73 3.78552 134.428 13.836 137.278C27.0705 142.008 51.4041 142.105 49.93 139.644C49.394 138.997 41.2741 138.199 38.4599 137.681C30.8215 136.515 13.2345 129.588 9.64848 126.93C8.42193 126.038 4.81253 123.671 3.6094 121.897L0 113.613V124.858Z" fill="#E85448"/>
<path d="M4.8146 156.833C4.8146 157.48 4.60806 159.382 6.61816 160.355C8.81902 162.933 40.307 162.13 48.86 155.474C51.6741 154.308 52.0762 153.79 49.932 154.438C46.4479 155.215 12.721 157.221 7.76274 156.314C6.15466 156.055 4.8146 156.314 4.8146 156.833Z" fill="#E85448"/>
<path d="M48.7262 178.107C40.1502 186.526 27.8777 181.712 23.3218 181.065C18.3638 180.287 18.6501 181.536 23.8761 183.997C27.4941 185.811 37.7582 193.27 40.3042 191.716C45.7982 188.219 68.3156 160.947 66.1716 160.947C65.9036 160.947 52.3356 175.148 48.7262 178.107Z" fill="#E85448"/>
<path d="M202.762 118.021C207.276 118.021 210.57 118.946 212.644 120.796C214.717 122.646 215.754 125.238 215.754 128.572C215.754 130.087 215.515 131.531 215.036 132.902C214.574 134.258 213.808 135.462 212.739 136.515C211.671 137.552 210.259 138.373 208.504 138.979C206.766 139.586 204.62 139.889 202.068 139.889H198.336V153H192.594V118.021H202.762ZM202.379 122.782H198.336V135.104H201.47C203.273 135.104 204.804 134.896 206.064 134.481C207.324 134.051 208.281 133.373 208.935 132.448C209.589 131.523 209.916 130.302 209.916 128.787C209.916 126.761 209.302 125.254 208.074 124.265C206.861 123.276 204.963 122.782 202.379 122.782ZM265.079 153H245.269V118.021H265.079V122.854H251.011V132.352H264.194V137.161H251.011V148.143H265.079V153ZM300.863 153H295.168V118.021H314.931V122.854H300.863V133.764H314.022V138.573H300.863V153ZM365.501 153L362.079 143.286H348.705L345.283 153H339.23L352.246 117.877H358.61L371.602 153H365.501ZM360.596 138.357L357.27 128.787C357.143 128.372 356.959 127.79 356.72 127.041C356.481 126.275 356.241 125.501 356.002 124.72C355.763 123.922 355.563 123.252 355.404 122.71C355.244 123.364 355.045 124.098 354.806 124.911C354.582 125.709 354.359 126.458 354.136 127.16C353.928 127.862 353.769 128.404 353.657 128.787L350.308 138.357H360.596Z" fill="#E85448"/>
</svg>
