<svg width="154" height="200" viewBox="0 0 154 200" fill="none" xmlns="http://www.w3.org/2000/svg">
<path d="M71.3014 2.98447C62.9929 7.25884 56.8286 13.217 51.7364 22.2839C39.8098 43.0081 39.6758 60.3646 51.4684 82.2545C58.4367 95.0776 60.3128 104.922 56.9626 111.139C55.7566 113.341 53.8805 115.672 52.5404 116.32C50.6643 117.356 50.7983 118.004 54.4165 121.242C61.2508 127.718 75.0535 136.008 78.6717 136.008C79.3418 136.008 80.6818 134.324 81.6199 132.122C83.63 127.33 82.1559 115.284 79.6098 115.284C77.76 113.609 77.4657 113.018 77.4657 111.009C79.7438 108.807 81.2442 107.106 77.76 107.106C74.2758 107.106 67.1735 101.019 67.9775 98.8166C68.2455 98.0394 68.4872 97.9272 70.8993 98.1863C73.4455 98.3158 79.8778 97.5386 85.238 96.3729C93.1444 94.6891 95.8246 94.5595 98.9067 95.8548C101.051 96.632 103.597 97.1501 104.535 97.0205C107.483 96.3729 113.781 98.3158 113.781 99.8701C113.781 100.518 111.101 102.202 107.885 103.626C101.587 106.217 97.7007 110.362 97.7007 114.636C97.7007 116.19 99.4428 119.947 101.453 123.185C110.565 137.174 113.513 148.054 111.101 158.157C109.761 163.597 107.751 166.447 100.783 173.441C88.5882 185.357 86.9801 187.559 86.9801 192.222C86.9801 199.735 89.1242 201.03 98.3707 199.346C139.243 192.093 165.642 147.924 148.891 114.895C144.603 106.605 140.181 101.036 137.635 101.036C137.099 101.036 136.563 103.108 136.563 105.699C136.563 108.289 135.625 112.046 134.285 113.988C130.934 119.429 117.802 125.775 117.802 122.019C117.802 121.371 119.678 117.227 122.09 112.693C125.574 105.828 126.244 102.979 126.378 95.3367C126.512 73.8353 119.812 62.5665 93.1444 39.5109C76.6616 25.263 71.0333 15.5485 74.1155 6.74073C74.9195 4.40926 76.5276 1.94825 77.5997 1.30062C81.4859 -1.16038 76.7956 0.134892 71.3014 2.98447Z" fill="#E85448"/>
<path d="M25.4618 76.7392C20.4534 78.1081 7.58917 93.0524 8.52722 96.6791C9.73328 101.472 18.9797 111.963 26.6181 117.533C30.5043 120.123 43.0449 127.478 43.313 127.219C43.581 126.96 33.3602 118.826 30.6801 115.976C15.0393 94.6743 21.3076 83.6041 27.0699 77.5164C30.152 74.2782 29.616 74.0191 25.4618 76.7392Z" fill="#E85448"/>
<path d="M0 124.858C0.601566 133.73 3.78552 134.428 13.836 137.278C27.0705 142.008 51.4041 142.105 49.93 139.644C49.394 138.997 41.2741 138.199 38.4599 137.681C30.8215 136.515 13.2345 129.588 9.64848 126.93C8.42193 126.038 4.81253 123.671 3.6094 121.897L0 113.613V124.858Z" fill="#E85448"/>
<path d="M4.81264 156.833C4.81264 157.48 4.60611 159.382 6.61621 160.355C8.81707 162.933 40.305 162.13 48.858 155.474C51.6722 154.308 52.0742 153.79 49.9301 154.438C46.4459 155.215 12.719 157.221 7.76079 156.314C6.15271 156.055 4.81264 156.314 4.81264 156.833Z" fill="#E85448"/>
<path d="M48.7281 178.106C40.1521 186.525 27.8797 181.711 23.3237 181.064C18.3657 180.286 18.6521 181.535 23.878 183.996C27.496 185.81 37.7602 193.27 40.3062 191.715C45.8002 188.218 68.3175 160.946 66.1735 160.946C65.9055 160.946 52.3375 175.147 48.7281 178.106Z" fill="#E85448"/>
</svg>
