<svg width="42" height="42" viewBox="0 0 42 42" fill="none" xmlns="http://www.w3.org/2000/svg">
<path d="M38.7333 42L24.0333 27.3C22.8667 28.2333 21.525 28.9722 20.0083 29.5167C18.4917 30.0611 16.8778 30.3333 15.1667 30.3333C10.9278 30.3333 7.34067 28.8649 4.40533 25.928C1.47 22.9911 0.00155679 19.404 1.23457e-06 15.1667C-0.00155432 10.9293 1.46689 7.34222 4.40533 4.40533C7.34378 1.46844 10.9309 0 15.1667 0C19.4024 0 22.9903 1.46844 25.9303 4.40533C28.8703 7.34222 30.338 10.9293 30.3333 15.1667C30.3333 16.8778 30.0611 18.4917 29.5167 20.0083C28.9722 21.525 28.2333 22.8667 27.3 24.0333L42 38.7333L38.7333 42ZM15.1667 25.6667C18.0833 25.6667 20.5629 24.6462 22.6053 22.6053C24.6478 20.5644 25.6682 18.0849 25.6667 15.1667C25.6651 12.2484 24.6447 9.76967 22.6053 7.73033C20.566 5.691 18.0864 4.66978 15.1667 4.66667C12.2469 4.66356 9.76811 5.68478 7.73033 7.73033C5.69256 9.77589 4.67133 12.2547 4.66667 15.1667C4.662 18.0787 5.68322 20.5582 7.73033 22.6053C9.77745 24.6524 12.2562 25.6729 15.1667 25.6667Z" fill="#E85448"/>
</svg>
